<?xml version="1.0" encoding="UTF-8"?>
<svg id="Layer_1" data-name="Layer 1" xmlns="http://www.w3.org/2000/svg" viewBox="0 0 600 600">
  <defs>
    <style>
      .cls-1 {
        fill: #093426;
      }
    </style>
  </defs>
  <path class="cls-1" d="M217.45,227.11c-18.44,0-28.17,19.12-28.17,42.92,0,28.5,13.08,75.12,41.58,75.12,10.06,0,18.11-5.37,23.14-16.1v-56.34c-6.71-23.81-18.78-45.6-36.56-45.6Z"/>
  <path class="cls-1" d="M300,0C134.31,0,0,134.31,0,300s134.31,300,300,300,300-134.31,300-300S465.69,0,300,0ZM309.67,373.65c0,45.61-34.87,75.12-90.88,75.12-38.23,0-75.12-13.75-75.12-40.24,0-14.08,10.06-22.8,23.47-22.8,15.42,0,21.12,11.4,26.83,23.47,5.37,11.73,11.4,23.14,27.83,23.14,19.45,0,32.19-15.42,32.19-40.24v-42.26c-12.74,15.09-30.18,22.8-50.97,22.8-41.58,0-69.08-31.19-69.08-78.8,0-50.64,30.18-83.17,78.13-83.17,23.14,0,40.92,7.72,56.67,22.47,3.35-2.68,6.71-5.7,9.39-9.05,6.37-6.71,12.07-11.74,19.78-11.74,7.04,0,11.74,4.69,11.74,12.41v148.89ZM453.04,268.35c-11.4,0-17.78-6.03-22.13-13.08-3.02-4.36-6.03-7.71-10.06-7.71-5.37,0-11.4,5.03-15.43,16.1v92.22c0,5.37,3.69,7.71,8.05,10.4,3.35,2.01,7.71,4.36,7.71,10.06,0,5.03-4.03,8.72-10.06,8.72h-64.05c-5.7,0-9.72-3.69-9.72-8.72s3.02-7.38,6.04-9.72c3.69-2.68,6.37-5.37,6.37-10.73v-111.67c0-6.04-3.02-8.72-6.37-11.07-3.02-2.35-6.04-4.69-6.04-10.06,0-5.03,4.03-9.05,9.39-9.05h45.94c7.71,0,12.74,5.03,12.74,13.08v13.41c10.06-18.44,25.49-29.85,43.26-29.85,16.76,0,31.52,9.73,31.52,29.18,0,16.43-10.4,28.5-27.16,28.5Z"/>
</svg>