<?xml version="1.0" encoding="UTF-8"?>
<svg id="Layer_1" data-name="Layer 1" xmlns="http://www.w3.org/2000/svg" viewBox="0 0 1271.46 500">
  <defs>
    <style>
      .cls-1 {
        fill: #093426;
      }
    </style>
  </defs>
  <g>
    <path class="cls-1" d="M12.14,247.07c0-17.59,12.56-28.48,29.32-28.48,19.26,0,26.38,14.24,33.5,29.32,6.7,14.65,14.24,28.9,34.76,28.9,24.28,0,40.2-19.26,40.2-50.25v-52.76c-15.92,18.84-37.69,28.47-63.65,28.47C34.34,202.25,0,163.31,0,103.85,0,40.62,37.69,0,97.57,0c28.9,0,51.09,9.63,70.77,28.05,4.19-3.35,8.38-7.12,11.73-11.31,7.96-8.37,15.07-14.65,24.71-14.65,8.79,0,14.66,5.86,14.66,15.49v185.93c0,56.95-43.55,93.8-113.49,93.8-47.74,0-93.8-17.17-93.8-50.25ZM121.02,167.92c12.56,0,22.61-6.7,28.9-20.1v-70.35c-8.38-29.73-23.45-56.95-45.65-56.95s-35.17,23.87-35.17,53.6c0,35.6,16.33,93.8,51.93,93.8Z"/>
    <path class="cls-1" d="M252.99,206.86c0-6.28,3.77-9.22,7.54-12.15,4.61-3.35,7.96-6.7,7.96-13.4V41.87c0-7.54-3.77-10.89-7.96-13.82-3.77-2.93-7.54-5.86-7.54-12.56,0-6.28,5.03-11.31,11.73-11.31h57.37c9.63,0,15.91,6.28,15.91,16.33v16.75C350.55,14.24,369.82,0,392.01,0c20.94,0,39.36,12.14,39.36,36.43,0,20.52-12.98,35.59-33.92,35.59-14.24,0-22.2-7.54-27.64-16.33-3.77-5.45-7.54-9.63-12.56-9.63-6.7,0-14.24,6.28-19.26,20.1v115.15c0,6.7,4.61,9.63,10.05,12.98,4.18,2.51,9.63,5.44,9.63,12.56,0,6.28-5.03,10.88-12.56,10.88h-79.99c-7.12,0-12.14-4.61-12.14-10.88Z"/>
    <path class="cls-1" d="M441.23,110.97c0-66.59,44.81-110.97,112.22-110.97,50.25,0,85.43,23.87,85.43,58.62,0,43.13-52.76,60.3-122.27,62.4,8.79,28.9,27.64,54.44,60.72,54.44,22.2,0,33.5-10.47,42.3-18.01,5.86-5.03,10.05-7.95,14.24-7.95,4.61,0,8.38,2.93,8.38,11.72,0,30.15-35.6,60.72-90.87,60.72-65.75,0-110.13-43.97-110.13-110.97ZM512.41,102.6c47.74-2.09,64.49-18.85,64.49-43.55,0-21.36-11.31-38.53-29.73-38.53-24.29,0-36.85,27.22-36.85,56.95,0,7.95.42,16.33,2.09,25.13Z"/>
    <path class="cls-1" d="M660.92,110.97c0-66.59,44.81-110.97,112.22-110.97,50.25,0,85.43,23.87,85.43,58.62,0,43.13-52.76,60.3-122.27,62.4,8.79,28.9,27.64,54.44,60.72,54.44,22.2,0,33.5-10.47,42.3-18.01,5.86-5.03,10.05-7.95,14.24-7.95,4.61,0,8.38,2.93,8.38,11.72,0,30.15-35.6,60.72-90.87,60.72-65.75,0-110.13-43.97-110.13-110.97ZM732.1,102.6c47.74-2.09,64.49-18.85,64.49-43.55,0-21.36-11.31-38.53-29.73-38.53-24.29,0-36.85,27.22-36.85,56.95,0,7.95.42,16.33,2.09,25.13Z"/>
    <path class="cls-1" d="M881.58,206.86c0-6.28,3.77-9.22,7.54-12.15,4.61-3.35,7.96-6.7,7.96-13.4V41.87c0-7.54-3.77-10.89-7.96-13.82-3.77-2.93-7.54-5.86-7.54-12.56,0-6.28,5.03-11.31,11.73-11.31h57.37c9.63,0,15.91,6.28,15.91,16.33v14.24c18.01-21.77,43.55-34.75,72.03-34.75,38.11,0,65.74,23.03,65.74,63.65v117.67c0,6.7,3.35,10.05,7.96,13.4,3.77,2.93,7.54,5.86,7.54,12.15s-5.03,10.88-12.14,10.88h-76.63c-7.12,0-11.73-4.61-11.73-10.88s3.77-9.22,7.54-12.15c4.19-3.35,7.96-6.7,7.96-13.4v-115.57c0-17.59-12.56-29.73-30.15-29.73-15.49,0-28.89,9.21-38.11,23.87v121.44c0,6.7,3.77,10.05,7.96,13.4,3.77,2.93,7.54,5.86,7.54,12.15s-4.61,10.88-11.73,10.88h-76.63c-7.12,0-12.14-4.61-12.14-10.88Z"/>
  </g>
  <g>
    <path class="cls-1" d="M226.92,484.93c0-6.28,3.77-9.21,7.54-12.14,4.61-3.35,7.96-6.7,7.96-13.4v-139.45c0-7.54-3.77-10.88-7.96-13.82-3.77-2.93-7.54-5.86-7.54-12.56,0-6.28,5.03-11.31,11.73-11.31h57.37c9.63,0,15.91,6.28,15.91,16.33v16.75c12.56-23.03,31.83-37.27,54.02-37.27,20.94,0,39.36,12.15,39.36,36.43,0,20.52-12.98,35.6-33.92,35.6-14.24,0-22.2-7.54-27.64-16.33-3.77-5.44-7.54-9.63-12.56-9.63-6.7,0-14.24,6.28-19.26,20.1v115.16c0,6.7,4.61,9.63,10.05,12.98,4.18,2.52,9.63,5.45,9.63,12.56,0,6.28-5.03,10.89-12.56,10.89h-79.99c-7.12,0-12.14-4.61-12.14-10.89Z"/>
    <path class="cls-1" d="M415.37,389.03c0-67,44.81-110.97,113.06-110.97s112.65,43.97,112.65,110.97-44.81,110.97-112.65,110.97-113.06-43.97-113.06-110.97ZM572.4,418.35c0-48.16-18.43-119.76-53.19-119.76-23.03,0-34.76,27.22-34.76,61.55,0,48.58,17.59,119.35,53.19,119.35,20.1,0,34.76-21.77,34.76-61.14Z"/>
    <path class="cls-1" d="M661.69,389.03c0-67,44.81-110.97,113.06-110.97s112.65,43.97,112.65,110.97-44.81,110.97-112.65,110.97-113.06-43.97-113.06-110.97ZM818.73,418.35c0-48.16-18.43-119.76-53.19-119.76-23.03,0-34.76,27.22-34.76,61.55,0,48.58,17.59,119.35,53.19,119.35,20.1,0,34.76-21.77,34.76-61.14Z"/>
    <path class="cls-1" d="M906.72,484.93c0-6.28,3.77-9.21,7.54-12.14,4.61-3.35,7.96-6.7,7.96-13.4v-139.45c0-7.54-3.77-10.88-7.96-13.82-3.77-2.93-7.54-5.86-7.54-12.56,0-6.28,5.03-11.31,11.73-11.31h57.37c9.63,0,15.91,6.28,15.91,16.33v12.98c17.17-20.52,41.46-33.5,68.68-33.5s50.25,13.4,59.46,38.11c17.17-23.45,43.13-38.11,72.45-38.11,36.43,0,63.65,22.62,63.65,63.65v117.67c0,6.7,3.35,10.05,7.96,13.4,3.77,2.93,7.54,5.86,7.54,12.14s-5.03,10.89-12.14,10.89h-76.63c-7.12,0-11.73-4.61-11.73-10.89s3.77-9.21,7.54-12.14c4.19-3.35,7.96-6.7,7.96-13.4v-115.57c0-18.43-12.15-29.73-27.64-29.73-14.24,0-26.8,8.79-35.18,23.03,0,1.25.42,2.93.42,4.61v117.67c0,6.7,3.35,10.05,7.96,13.4,3.77,2.93,7.54,5.86,7.54,12.14s-5.03,10.89-12.14,10.89h-76.63c-7.54,0-11.73-4.61-11.73-10.89s3.77-9.21,7.54-12.14c4.19-3.35,7.96-6.7,7.96-13.4v-115.57c0-18.43-11.73-29.73-28.06-29.73-13.82,0-26.38,8.79-34.76,22.61v122.7c0,6.7,3.77,10.05,7.96,13.4,3.77,2.93,7.54,5.86,7.54,12.14s-4.61,10.89-11.73,10.89h-76.63c-7.12,0-12.14-4.61-12.14-10.89Z"/>
  </g>
</svg>